<svg width="16" height="16" viewBox="0 0 16 16" fill="none" xmlns="http://www.w3.org/2000/svg">
<rect width="16" height="16" rx="4" fill="#24282C"/>
<mask id="mask0_113_15" style="mask-type:alpha" maskUnits="userSpaceOnUse" x="2" y="4" width="12" height="9">
<path d="M4.96946 6.53841L4 7.71533C4 7.71533 4.3587 9.06579 5.35724 10.0285C7.27483 11.8768 10.0754 10.6689 11.174 9.83457C12.2127 8.98726 11.7008 8.80074 11.3679 8.86511L10.3984 9.059C12.156 6.28616 11.6733 5.99009 11.174 6.15063L9.42896 6.9262C8.3104 7.54219 7.78089 7.21703 7.49005 6.9262L6.90837 6.34452C6.03586 5.56895 5.16917 6.3135 4.96946 6.53841Z" fill="white" stroke="white" stroke-width="4" stroke-linecap="round" stroke-linejoin="round"/>
<path d="M5.93893 8.08953C6.1531 8.08953 6.32671 7.91591 6.32671 7.70175C6.32671 7.48758 6.1531 7.31396 5.93893 7.31396C5.72476 7.31396 5.55115 7.48758 5.55115 7.70175C5.55115 7.91591 5.72476 8.08953 5.93893 8.08953Z" fill="white"/>
</mask>
<g mask="url(#mask0_113_15)">
<path d="M3.22449 3.82391H12.5313V13.1307H3.22449V3.82391Z" fill="white"/>
<path d="M3.22449 3.82391H12.5313V13.1307H3.22449V3.82391Z" fill="white"/>
<path d="M0.403687 3.60248H19.5837V13.1925H0.403687V3.60248Z" fill="white"/>
</g>
<circle cx="4.85499" cy="6.85501" r="0.698114" transform="rotate(-165 4.85499 6.85501)" fill="#24282C"/>
</svg>
