<svg width="140" height="29" viewBox="0 0 140 29" fill="none" xmlns="http://www.w3.org/2000/svg">
<path d="M48.992 9.492C48.92 9.612 48.84 9.704 48.752 9.768C48.672 9.824 48.572 9.852 48.452 9.852C48.316 9.852 48.156 9.784 47.972 9.648C47.788 9.512 47.556 9.364 47.276 9.204C47.004 9.036 46.672 8.884 46.28 8.748C45.896 8.612 45.428 8.544 44.876 8.544C44.356 8.544 43.896 8.616 43.496 8.76C43.104 8.896 42.772 9.084 42.5 9.324C42.236 9.564 42.036 9.848 41.9 10.176C41.764 10.496 41.696 10.844 41.696 11.22C41.696 11.7 41.812 12.1 42.044 12.42C42.284 12.732 42.596 13 42.98 13.224C43.372 13.448 43.812 13.644 44.3 13.812C44.796 13.972 45.3 14.14 45.812 14.316C46.332 14.492 46.836 14.692 47.324 14.916C47.82 15.132 48.26 15.408 48.644 15.744C49.036 16.08 49.348 16.492 49.58 16.98C49.82 17.468 49.94 18.068 49.94 18.78C49.94 19.532 49.812 20.24 49.556 20.904C49.3 21.56 48.924 22.132 48.428 22.62C47.94 23.108 47.336 23.492 46.616 23.772C45.904 24.052 45.092 24.192 44.18 24.192C43.06 24.192 42.044 23.992 41.132 23.592C40.22 23.184 39.44 22.636 38.792 21.948L39.464 20.844C39.528 20.756 39.604 20.684 39.692 20.628C39.788 20.564 39.892 20.532 40.004 20.532C40.108 20.532 40.224 20.576 40.352 20.664C40.488 20.744 40.64 20.848 40.808 20.976C40.976 21.104 41.168 21.244 41.384 21.396C41.6 21.548 41.844 21.688 42.116 21.816C42.396 21.944 42.712 22.052 43.064 22.14C43.416 22.22 43.812 22.26 44.252 22.26C44.804 22.26 45.296 22.184 45.728 22.032C46.16 21.88 46.524 21.668 46.82 21.396C47.124 21.116 47.356 20.784 47.516 20.4C47.676 20.016 47.756 19.588 47.756 19.116C47.756 18.596 47.636 18.172 47.396 17.844C47.164 17.508 46.856 17.228 46.472 17.004C46.088 16.78 45.648 16.592 45.152 16.44C44.656 16.28 44.152 16.12 43.64 15.96C43.128 15.792 42.624 15.6 42.128 15.384C41.632 15.168 41.192 14.888 40.808 14.544C40.424 14.2 40.112 13.772 39.872 13.26C39.64 12.74 39.524 12.1 39.524 11.34C39.524 10.732 39.64 10.144 39.872 9.576C40.112 9.008 40.456 8.504 40.904 8.064C41.36 7.624 41.916 7.272 42.572 7.008C43.236 6.744 43.996 6.612 44.852 6.612C45.812 6.612 46.684 6.764 47.468 7.068C48.26 7.372 48.956 7.812 49.556 8.388L48.992 9.492ZM57.7769 11.652C58.6649 11.652 59.4649 11.8 60.1769 12.096C60.8889 12.392 61.4969 12.812 62.0009 13.356C62.5049 13.9 62.8889 14.56 63.1529 15.336C63.4249 16.104 63.5609 16.964 63.5609 17.916C63.5609 18.876 63.4249 19.74 63.1529 20.508C62.8889 21.276 62.5049 21.932 62.0009 22.476C61.4969 23.02 60.8889 23.44 60.1769 23.736C59.4649 24.024 58.6649 24.168 57.7769 24.168C56.8809 24.168 56.0729 24.024 55.3529 23.736C54.6409 23.44 54.0329 23.02 53.5289 22.476C53.0249 21.932 52.6369 21.276 52.3649 20.508C52.1009 19.74 51.9689 18.876 51.9689 17.916C51.9689 16.964 52.1009 16.104 52.3649 15.336C52.6369 14.56 53.0249 13.9 53.5289 13.356C54.0329 12.812 54.6409 12.392 55.3529 12.096C56.0729 11.8 56.8809 11.652 57.7769 11.652ZM57.7769 22.5C58.9769 22.5 59.8729 22.1 60.4649 21.3C61.0569 20.492 61.3529 19.368 61.3529 17.928C61.3529 16.48 61.0569 15.352 60.4649 14.544C59.8729 13.736 58.9769 13.332 57.7769 13.332C57.1689 13.332 56.6369 13.436 56.1809 13.644C55.7329 13.852 55.3569 14.152 55.0529 14.544C54.7569 14.936 54.5329 15.42 54.3809 15.996C54.2369 16.564 54.1649 17.208 54.1649 17.928C54.1649 19.368 54.4609 20.492 55.0529 21.3C55.6529 22.1 56.5609 22.5 57.7769 22.5ZM68.2861 13.608C68.5501 13.312 68.8301 13.044 69.1261 12.804C69.4221 12.564 69.7341 12.36 70.0621 12.192C70.3981 12.016 70.7501 11.884 71.1181 11.796C71.4941 11.7 71.8981 11.652 72.3301 11.652C72.9941 11.652 73.5781 11.764 74.0821 11.988C74.5941 12.204 75.0181 12.516 75.3541 12.924C75.6981 13.324 75.9581 13.808 76.1341 14.376C76.3101 14.944 76.3981 15.572 76.3981 16.26V24H74.2501V16.26C74.2501 15.34 74.0381 14.628 73.6141 14.124C73.1981 13.612 72.5621 13.356 71.7061 13.356C71.0741 13.356 70.4821 13.508 69.9301 13.812C69.3861 14.116 68.8821 14.528 68.4181 15.048V24H66.2701V11.844H67.5541C67.8581 11.844 68.0461 11.992 68.1181 12.288L68.2861 13.608ZM83.8889 18.06C84.3209 18.06 84.7009 18 85.0289 17.88C85.3569 17.76 85.6329 17.592 85.8569 17.376C86.0809 17.16 86.2489 16.904 86.3609 16.608C86.4729 16.304 86.5289 15.972 86.5289 15.612C86.5289 14.868 86.3009 14.276 85.8449 13.836C85.3969 13.396 84.7449 13.176 83.8889 13.176C83.0249 13.176 82.3649 13.396 81.9089 13.836C81.4609 14.276 81.2369 14.868 81.2369 15.612C81.2369 15.972 81.2929 16.304 81.4049 16.608C81.5249 16.904 81.6969 17.16 81.9209 17.376C82.1449 17.592 82.4209 17.76 82.7489 17.88C83.0769 18 83.4569 18.06 83.8889 18.06ZM87.7409 24.66C87.7409 24.364 87.6569 24.124 87.4889 23.94C87.3209 23.756 87.0929 23.612 86.8049 23.508C86.5249 23.404 86.1969 23.332 85.8209 23.292C85.4449 23.244 85.0449 23.208 84.6209 23.184C84.2049 23.16 83.7809 23.136 83.3489 23.112C82.9169 23.088 82.5009 23.048 82.1009 22.992C81.6529 23.2 81.2849 23.464 80.9969 23.784C80.7169 24.096 80.5769 24.464 80.5769 24.888C80.5769 25.16 80.6449 25.412 80.7809 25.644C80.9249 25.884 81.1409 26.088 81.4289 26.256C81.7169 26.432 82.0769 26.568 82.5089 26.664C82.9489 26.768 83.4649 26.82 84.0569 26.82C84.6329 26.82 85.1489 26.768 85.6049 26.664C86.0609 26.56 86.4449 26.412 86.7569 26.22C87.0769 26.028 87.3209 25.8 87.4889 25.536C87.6569 25.272 87.7409 24.98 87.7409 24.66ZM89.9129 12.324V13.116C89.9129 13.38 89.7449 13.548 89.4089 13.62L88.0289 13.8C88.3009 14.328 88.4369 14.912 88.4369 15.552C88.4369 16.144 88.3209 16.684 88.0889 17.172C87.8649 17.652 87.5529 18.064 87.1529 18.408C86.7529 18.752 86.2729 19.016 85.7129 19.2C85.1529 19.384 84.5449 19.476 83.8889 19.476C83.3209 19.476 82.7849 19.408 82.2809 19.272C82.0249 19.432 81.8289 19.604 81.6929 19.788C81.5569 19.964 81.4889 20.144 81.4889 20.328C81.4889 20.616 81.6049 20.836 81.8369 20.988C82.0769 21.132 82.3889 21.236 82.7729 21.3C83.1569 21.364 83.5929 21.404 84.0809 21.42C84.5769 21.436 85.0809 21.464 85.5929 21.504C86.1129 21.536 86.6169 21.596 87.1049 21.684C87.6009 21.772 88.0409 21.916 88.4249 22.116C88.8089 22.316 89.1169 22.592 89.3489 22.944C89.5889 23.296 89.7089 23.752 89.7089 24.312C89.7089 24.832 89.5769 25.336 89.3129 25.824C89.0569 26.312 88.6849 26.744 88.1969 27.12C87.7089 27.504 87.1089 27.808 86.3969 28.032C85.6929 28.264 84.8969 28.38 84.0089 28.38C83.1209 28.38 82.3449 28.292 81.6809 28.116C81.0169 27.94 80.4649 27.704 80.0249 27.408C79.5849 27.112 79.2529 26.768 79.0289 26.376C78.8129 25.992 78.7049 25.588 78.7049 25.164C78.7049 24.564 78.8929 24.056 79.2689 23.64C79.6449 23.224 80.1609 22.892 80.8169 22.644C80.4569 22.484 80.1689 22.272 79.9529 22.008C79.7449 21.736 79.6409 21.372 79.6409 20.916C79.6409 20.74 79.6729 20.56 79.7369 20.376C79.8009 20.184 79.8969 19.996 80.0249 19.812C80.1609 19.62 80.3249 19.44 80.5169 19.272C80.7089 19.104 80.9329 18.956 81.1889 18.828C80.5889 18.492 80.1209 18.048 79.7849 17.496C79.4489 16.936 79.2809 16.288 79.2809 15.552C79.2809 14.96 79.3929 14.424 79.6169 13.944C79.8489 13.456 80.1689 13.044 80.5769 12.708C80.9849 12.364 81.4689 12.1 82.0289 11.916C82.5969 11.732 83.2169 11.64 83.8889 11.64C84.4169 11.64 84.9089 11.7 85.3649 11.82C85.8209 11.932 86.2369 12.1 86.6129 12.324H89.9129ZM104.802 22.152C105.466 22.152 106.038 22.076 106.518 21.924C106.998 21.772 107.39 21.56 107.694 21.288C108.006 21.008 108.234 20.68 108.378 20.304C108.522 19.92 108.594 19.5 108.594 19.044C108.594 18.156 108.278 17.456 107.646 16.944C107.014 16.424 106.066 16.164 104.802 16.164H101.082V22.152H104.802ZM101.082 8.64V14.508H104.154C104.81 14.508 105.378 14.436 105.858 14.292C106.346 14.148 106.746 13.948 107.058 13.692C107.378 13.436 107.614 13.128 107.766 12.768C107.918 12.4 107.994 12 107.994 11.568C107.994 10.552 107.69 9.812 107.082 9.348C106.474 8.876 105.53 8.64 104.25 8.64H101.082ZM104.25 6.804C105.306 6.804 106.214 6.908 106.974 7.116C107.742 7.324 108.37 7.62 108.858 8.004C109.354 8.388 109.718 8.86 109.95 9.42C110.182 9.972 110.298 10.596 110.298 11.292C110.298 11.716 110.23 12.124 110.094 12.516C109.966 12.9 109.77 13.26 109.506 13.596C109.242 13.932 108.906 14.236 108.498 14.508C108.098 14.772 107.626 14.988 107.082 15.156C108.346 15.396 109.294 15.848 109.926 16.512C110.566 17.168 110.886 18.032 110.886 19.104C110.886 19.832 110.75 20.496 110.478 21.096C110.214 21.696 109.822 22.212 109.302 22.644C108.79 23.076 108.158 23.412 107.406 23.652C106.654 23.884 105.798 24 104.838 24H98.7663V6.804H104.25ZM115.776 11.844V24H113.64V11.844H115.776ZM116.232 8.028C116.232 8.236 116.188 8.432 116.1 8.616C116.02 8.792 115.908 8.952 115.764 9.096C115.628 9.232 115.464 9.34 115.272 9.42C115.088 9.5 114.892 9.54 114.684 9.54C114.476 9.54 114.28 9.5 114.096 9.42C113.92 9.34 113.764 9.232 113.628 9.096C113.492 8.952 113.384 8.792 113.304 8.616C113.224 8.432 113.184 8.236 113.184 8.028C113.184 7.82 113.224 7.624 113.304 7.44C113.384 7.248 113.492 7.084 113.628 6.948C113.764 6.804 113.92 6.692 114.096 6.612C114.28 6.532 114.476 6.492 114.684 6.492C114.892 6.492 115.088 6.532 115.272 6.612C115.464 6.692 115.628 6.804 115.764 6.948C115.908 7.084 116.02 7.248 116.1 7.44C116.188 7.624 116.232 7.82 116.232 8.028ZM121.314 14.28C121.698 13.448 122.17 12.8 122.73 12.336C123.29 11.864 123.974 11.628 124.782 11.628C125.038 11.628 125.282 11.656 125.514 11.712C125.754 11.768 125.966 11.856 126.15 11.976L125.994 13.572C125.946 13.772 125.826 13.872 125.634 13.872C125.522 13.872 125.358 13.848 125.142 13.8C124.926 13.752 124.682 13.728 124.41 13.728C124.026 13.728 123.682 13.784 123.378 13.896C123.082 14.008 122.814 14.176 122.574 14.4C122.342 14.616 122.13 14.888 121.938 15.216C121.754 15.536 121.586 15.904 121.434 16.32V24H119.286V11.844H120.51C120.742 11.844 120.902 11.888 120.99 11.976C121.078 12.064 121.138 12.216 121.17 12.432L121.314 14.28ZM135.479 14.736C135.079 14.2 134.647 13.828 134.183 13.62C133.719 13.404 133.199 13.296 132.623 13.296C131.495 13.296 130.627 13.7 130.019 14.508C129.411 15.316 129.107 16.468 129.107 17.964C129.107 18.756 129.175 19.436 129.311 20.004C129.447 20.564 129.647 21.028 129.911 21.396C130.175 21.756 130.499 22.02 130.883 22.188C131.267 22.356 131.703 22.44 132.191 22.44C132.895 22.44 133.507 22.28 134.027 21.96C134.555 21.64 135.039 21.188 135.479 20.604V14.736ZM137.615 6.324V24H136.343C136.039 24 135.847 23.852 135.767 23.556L135.575 22.08C135.055 22.704 134.463 23.208 133.799 23.592C133.135 23.976 132.367 24.168 131.495 24.168C130.799 24.168 130.167 24.036 129.599 23.772C129.031 23.5 128.547 23.104 128.147 22.584C127.747 22.064 127.439 21.416 127.223 20.64C127.007 19.864 126.899 18.972 126.899 17.964C126.899 17.068 127.019 16.236 127.259 15.468C127.499 14.692 127.843 14.02 128.291 13.452C128.739 12.884 129.287 12.44 129.935 12.12C130.591 11.792 131.327 11.628 132.143 11.628C132.887 11.628 133.523 11.756 134.051 12.012C134.587 12.26 135.063 12.608 135.479 13.056V6.324H137.615Z" fill="#24282C"/>
<mask id="mask0_13_13" style="mask-type:alpha" maskUnits="userSpaceOnUse" x="0" y="7" width="28" height="19">
<path d="M4.90837 10.6152L2 14.146C2 14.146 3.0761 18.1974 6.07172 21.0854C11.8245 26.6305 20.2262 23.0067 23.522 20.5037C26.638 17.9618 25.1024 17.4022 24.1036 17.5953L21.1953 18.177C26.4681 9.85848 25.0198 8.97026 23.522 9.45189L18.2869 11.7786C14.9312 13.6266 13.3427 12.6511 12.4701 11.7786L10.7251 10.0336C8.10758 7.70686 5.5075 9.94049 4.90837 10.6152Z" fill="#24282C" stroke="white" stroke-width="4" stroke-linecap="round" stroke-linejoin="round"/>
<path d="M7.81673 15.2686C8.45923 15.2686 8.98008 14.7478 8.98008 14.1053C8.98008 13.4628 8.45923 12.9419 7.81673 12.9419C7.17423 12.9419 6.65338 13.4628 6.65338 14.1053C6.65338 14.7478 7.17423 15.2686 7.81673 15.2686Z" fill="#24282C"/>
</mask>
<g mask="url(#mask0_13_13)">
<path d="M-0.326721 2.47177H27.5937V30.3922H-0.326721V2.47177Z" fill="#24282C"/>
</g>
<circle cx="6.94584" cy="11.9458" r="1.58878" transform="rotate(-165 6.94584 11.9458)" fill="white"/>
</svg>
